HIERARCHY
ROOT Hips
{
	OFFSET -0.001795 -0.223333 0.028219
	CHANNELS 6 Xposition Yposition Zposition Zrotation Yrotation Xrotation 
	JOINT LeftUpLeg
	{
		OFFSET 0.069520 -0.091406 -0.006815
		CHANNELS 3 Zrotation Yrotation Xrotation
		JOINT LeftLeg
		{
			OFFSET 0.034277 -0.375199 -0.004496
			CHANNELS 3 Zrotation Yrotation Xrotation
			JOINT LeftFoot
			{
				OFFSET -0.013596 -0.397961 -0.043693
				CHANNELS 3 Zrotation Yrotation Xrotation
				JOINT LeftToe
				{
					OFFSET 0.026358 -0.055791 0.119288
					CHANNELS 3 Zrotation Yrotation Xrotation
					End Site
					{
						OFFSET 0.000000 0.000000 0.000000
					}
				}
			}
		}
	}
	JOINT RightUpLeg
	{
		OFFSET -0.067670 -0.090522 -0.004320
		CHANNELS 3 Zrotation Yrotation Xrotation
		JOINT RightLeg
		{
			OFFSET -0.038290 -0.382569 -0.008850
			CHANNELS 3 Zrotation Yrotation Xrotation
			JOINT RightFoot
			{
				OFFSET 0.015774 -0.398415 -0.042312
				CHANNELS 3 Zrotation Yrotation Xrotation
				JOINT RightToe
				{
					OFFSET -0.025372 -0.048144 0.123348
					CHANNELS 3 Zrotation Yrotation Xrotation
					End Site
					{
						OFFSET 0.000000 0.000000 0.000000
					}
				}
			}
		}
	}
	JOINT Spine
	{
		OFFSET -0.002533 0.108963 -0.026696
		CHANNELS 3 Zrotation Yrotation Xrotation
		JOINT Spine1
		{
			OFFSET 0.005487 0.135180 0.001092
			CHANNELS 3 Zrotation Yrotation Xrotation
			JOINT Spine2
			{
				OFFSET 0.001457 0.052922 0.025425
				CHANNELS 3 Zrotation Yrotation Xrotation
				JOINT Neck
				{
					OFFSET -0.002778 0.213870 -0.042857
					CHANNELS 3 Zrotation Yrotation Xrotation
					JOINT Head
					{
						OFFSET 0.005152 0.064970 0.051349
						CHANNELS 3 Zrotation Yrotation Xrotation
						End Site
						{
							OFFSET 0.000000 0.000000 0.000000
						}
					}
				}
				JOINT LeftShoulder
				{
					OFFSET 0.078845 0.121749 -0.034090
					CHANNELS 3 Zrotation Yrotation Xrotation
					JOINT LeftArm
					{
						OFFSET 0.090977 0.030469 -0.008868
						CHANNELS 3 Zrotation Yrotation Xrotation
						JOINT LeftForeArm
						{
							OFFSET 0.259612 -0.012772 -0.027456
							CHANNELS 3 Zrotation Yrotation Xrotation
							JOINT LeftHand
							{
								OFFSET 0.249234 0.008986 -0.001171
								CHANNELS 3 Zrotation Yrotation Xrotation
								End Site
								{
									OFFSET 0.000000 0.000000 0.000000
								}
							}
						}
					}
				}
				JOINT RightShoulder
				{
					OFFSET -0.081759 0.118833 -0.038615
					CHANNELS 3 Zrotation Yrotation Xrotation
					JOINT RightArm
					{
						OFFSET -0.096012 0.032551 -0.009143
						CHANNELS 3 Zrotation Yrotation Xrotation
						JOINT RightForeArm
						{
							OFFSET -0.253742 -0.013329 -0.021401
							CHANNELS 3 Zrotation Yrotation Xrotation
							JOINT RightHand
							{
								OFFSET -0.255298 0.007772 -0.005559
								CHANNELS 3 Zrotation Yrotation Xrotation
								End Site
								{
									OFFSET 0.000000 0.000000 0.000000
								}
							}
						}
					}
				}
			}
		}
	}
}
MOTION
Frames: 10
Frame Time: 0.050000
-0.789462 0.928039 2.043365 176.165405 -56.358491 175.491242 -7.356286 4.701284 -21.955656 11.096431 17.917126 34.512617 -4.911677 -4.310594 9.228641 0.000000 0.000000 0.000000 -7.715035 7.803330 8.475005 33.928369 13.938359 54.265281 -13.443144 -21.330231 25.607749 0.000000 0.000000 0.000000 -1.593838 1.208223 11.639953 -7.373111 4.335004 -5.117190 4.082983 3.480843 12.880271 -4.308741 -0.516587 -12.859488 0.000000 0.000000 0.000000 -16.048771 18.020040 0.011192 -57.686020 -4.525305 0.481614 0.968441 -24.817126 2.236699 0.000000 0.000000 0.000000 7.454571 -5.122672 -16.381515 51.194518 -29.566160 -23.149409 25.524163 37.643202 1.910170 0.000000 0.000000 0.000000 
-0.850271 0.939490 2.026081 178.016603 -59.663310 173.184590 -7.746409 1.839575 -16.142136 9.931681 17.431923 32.828011 -4.824058 -3.188615 6.900353 0.000000 0.000000 0.000000 -7.761581 4.221234 0.026653 40.809428 14.951554 63.653207 -23.076906 -28.969090 26.435315 0.000000 0.000000 0.000000 0.966194 0.812972 12.011372 -8.730230 4.646984 -5.192163 4.284489 1.786578 12.941217 -3.799460 -0.790985 -13.535172 0.000000 0.000000 0.000000 -15.900692 18.763180 -0.713647 -58.355866 -4.649141 0.511141 1.900392 -26.117345 2.543760 0.000000 0.000000 0.000000 7.609912 -6.347032 -16.132634 51.298144 -31.058816 -23.983371 24.433580 34.817581 1.832577 0.000000 0.000000 0.000000 
-0.908500 0.950114 2.009113 -179.750710 -65.412016 169.975526 -8.718077 -0.254592 -9.059787 7.045770 14.528433 28.099834 -3.606660 -0.765044 5.473373 0.000000 0.000000 0.000000 -5.670464 2.213622 -7.046425 37.249930 16.325748 65.407172 -23.024145 -30.913192 21.024167 0.000000 0.000000 0.000000 2.242394 0.759013 12.532607 -6.283672 2.831532 -6.177045 2.535025 1.670642 14.402490 -2.747931 -1.550757 -13.190849 0.000000 0.000000 0.000000 -16.095255 18.932648 -0.950025 -57.822175 -5.281339 -0.149294 1.259787 -27.905002 3.190932 0.000000 0.000000 0.000000 8.318187 -8.270425 -16.942495 51.230034 -32.907205 -24.692488 23.542745 32.612662 1.805783 0.000000 0.000000 0.000000 
-0.964360 0.954671 1.991848 -176.287863 -71.525355 165.251563 -9.610194 -0.618894 -2.595249 6.652481 11.948252 25.913076 -3.375332 0.783855 2.437668 0.000000 0.000000 0.000000 -4.610203 1.968949 -11.587828 26.040906 16.962817 58.075300 -21.316428 -28.933843 12.717006 0.000000 0.000000 0.000000 3.418917 0.643845 12.724015 -5.928496 2.439933 -5.981252 2.647356 0.757671 14.839757 -1.225167 -2.908187 -15.107166 0.000000 0.000000 0.000000 -14.887224 18.711623 -1.973364 -59.430450 -5.046922 0.155802 2.343337 -29.560565 3.549489 0.000000 0.000000 0.000000 8.107213 -10.507769 -16.091972 53.510140 -33.729761 -26.624744 21.569282 31.046846 1.598958 0.000000 0.000000 0.000000 
-1.017464 0.953488 1.974977 -168.651450 -78.930924 157.498022 -10.082188 -0.074192 1.852858 7.669330 9.265555 24.976268 -4.285168 -0.237765 -0.297518 0.000000 0.000000 0.000000 -4.806440 2.144791 -13.450937 10.182786 13.948581 43.359729 -13.106804 -17.119108 4.577240 0.000000 0.000000 0.000000 3.794305 0.477345 12.349064 -5.243341 1.798893 -6.271912 2.876022 -0.631826 15.460312 -1.438341 -2.993432 -15.935736 0.000000 0.000000 0.000000 -15.164333 18.525601 -2.276013 -59.372879 -6.550522 0.298241 1.213764 -30.803398 4.184713 0.000000 0.000000 0.000000 8.111022 -11.998301 -15.447717 54.889942 -34.530574 -27.859794 19.678570 29.688579 1.399203 0.000000 0.000000 0.000000 
-1.067634 0.947095 1.958868 -144.525703 -85.259276 133.682001 -9.137856 0.219844 3.136999 9.686627 8.797887 27.915263 -4.983637 -1.640795 -3.826279 0.000000 0.000000 0.000000 -5.854034 2.291035 -13.967368 -1.100361 7.849582 27.927285 -3.845889 -4.540174 3.434676 0.000000 0.000000 0.000000 3.677463 0.274188 11.355173 -3.985504 1.066503 -6.632507 2.194196 0.930052 16.498924 -0.070536 -4.139299 -17.915415 0.000000 0.000000 0.000000 -12.786851 17.280341 -3.253265 -61.905921 -5.941253 0.948750 1.580740 -33.694806 4.833251 0.000000 0.000000 0.000000 8.146255 -14.640247 -15.028072 57.059598 -34.328044 -29.057014 19.657057 27.786007 1.544923 0.000000 0.000000 0.000000 
-1.115901 0.940553 1.943262 -69.121638 -85.986971 58.936593 -8.028140 0.536843 4.396314 12.188177 7.384480 29.227236 -6.510082 -4.927333 -6.054598 0.000000 0.000000 0.000000 -6.033506 2.318028 -14.469273 -6.949073 3.051109 14.553171 9.780622 9.042221 9.536422 0.000000 0.000000 0.000000 5.189772 0.034459 10.271429 -4.066875 1.751623 -3.914305 1.469405 1.075613 13.700723 -0.817286 -3.062832 -16.014593 0.000000 0.000000 0.000000 -13.752169 16.555606 -3.054578 -61.028940 -6.502030 -0.052361 0.175700 -34.355811 5.260044 0.000000 0.000000 0.000000 9.252848 -14.562940 -14.326297 58.117934 -33.498579 -28.253605 16.989639 27.457521 1.346940 0.000000 0.000000 0.000000 
-1.163642 0.931877 1.927009 -22.543683 -79.581368 13.211547 -6.136110 0.609280 4.542218 14.140899 6.669959 32.711633 -6.698044 -7.487398 -7.924178 0.000000 0.000000 0.000000 -8.140180 2.391521 -13.811748 -7.507756 1.834347 10.180830 14.955112 15.236280 12.582088 0.000000 0.000000 0.000000 5.043020 -0.076564 9.736592 -3.168289 0.820245 -5.567130 0.513356 1.990267 15.123213 0.639253 -3.934646 -17.800412 0.000000 0.000000 0.000000 -15.008641 14.290237 -1.791253 -58.947232 -8.068023 -1.056906 -1.306331 -37.332934 6.185842 0.000000 0.000000 0.000000 10.692943 -14.941694 -14.530745 59.252315 -32.121744 -27.329378 14.027051 25.656668 0.956867 0.000000 0.000000 0.000000 
-1.211751 0.924838 1.909977 -16.670619 -72.781977 7.386088 -3.361906 0.834255 5.039169 17.113787 5.241938 35.464839 -7.305517 -10.882801 -7.772168 0.000000 0.000000 0.000000 -7.036564 1.884801 -12.042412 -8.324740 2.702442 12.793593 15.151566 17.329236 11.948592 0.000000 0.000000 0.000000 7.268042 -0.166489 9.419035 -4.054492 1.422608 -4.071471 -0.030272 2.380119 13.433741 0.545557 -3.242350 -16.725824 0.000000 0.000000 0.000000 -13.605636 12.227979 -1.676140 -59.727969 -6.436206 -1.954245 -2.316256 -38.786202 6.556099 0.000000 0.000000 0.000000 12.272833 -14.509220 -14.102123 60.080522 -29.310471 -25.096581 11.464255 24.921836 0.738374 0.000000 0.000000 0.000000 
-1.258260 0.924695 1.893284 -13.719520 -67.093712 5.494278 -0.618763 0.644415 2.926380 19.946573 4.601272 40.484852 -8.244457 -14.569046 -4.193058 0.000000 0.000000 0.000000 -6.770018 1.627096 -10.824409 -7.834353 3.430317 15.525884 11.851435 16.179162 8.338558 0.000000 0.000000 0.000000 7.589534 -0.244581 7.880998 -3.584957 1.417606 -3.034811 -0.963510 3.882008 13.606200 0.661659 -2.945768 -17.784493 0.000000 0.000000 0.000000 -13.463079 11.218996 -1.845120 -61.001842 -6.168756 -2.388555 -2.161928 -39.661689 6.387828 0.000000 0.000000 0.000000 13.593629 -14.207629 -13.756685 58.859819 -25.138344 -21.346280 11.985166 24.264644 1.059762 0.000000 0.000000 0.000000 
